<?xml version="1.0" encoding="utf-8"?><svg xmlns="http://www.w3.org/2000/svg" xmlns:xlink="http://www.w3.org/1999/xlink"><symbol id="qwe" viewBox="0 0 38 23.9" xml:space="preserve" xmlns="http://www.w3.org/2000/svg"><style>.ast0{fill:none}</style><path class="ast0" d="M8.7 14.5l.3.1h.3l.4.1V8.3l-.4-.1-.6-.2-1.9-.6-1-.3-.2.9-1.4 5.3zm5.2-8.3h5.7v4.4h-5.7z"/><path class="ast0" d="M19.6 16.1H11l-.3-.1-.4-.1-.6-.1-.4-.1-.6-.2L4 14.3 3 14l.3-.9 1.6-6.3.2-1 1 .3 2.6.8.6.2.4.1V4.1L9.3 4l-.6-.2-4-1.2-3.5 13.6 25.5 6.5 1-5.6.1-.6.1-.4h-6.2z"/><path class="ast0" d="M10.7 2.3v12.8H37V1H10.7v1.3zm12.5 3.1v-.2h11.6v1H23.2v-.8zm0 3v-.6h11.6v1H23.2v-.4zm0 2.2h11.6v1H23.2v-1zm-10.3 0V5.2h7.7v6.4h-7.7v-1z"/><path d="M37 0H9.7v3l-1-.3L5 1.6l-1-.3-.2 1L.2 15.9l-.2 1 1 .2 25.5 6.5 1 .2.2-1 1.1-5.8.1-.6.1-.4h9V0h-1zM5.6 8l.2-1 1 .3 1.9.7.6.2.4.1v6.4l-.4-.1H9l-.3-.1-4.4-1.2L5.6 8zm22.2 8.5l-.1.6-1 5.6-25.5-6.5L4.7 2.6l4 1.2.6.2.4.1v3.2l-.4-.2-.6-.2-2.6-.8-1-.3-.3 1L3.2 13 3 14l1 .3 4.7 1.2.6.2.4.1h.1l.6.1.4.1.3.1h16.8l-.1.4zm9.2-1.4H10.7V1H37v14.1z"/><path d="M19.6 11.6h1V5.2h-7.7v6.4h6.7zm-5.7-5.4h5.7v4.4h-5.7V6.2zm20.9-.8v-.2H23.2v1h11.6zm0 3v-.6H23.2v1h11.6zm-11.6 2.2h11.6v1H23.2z"/></symbol></svg>