<svg width="252" height="72" viewBox="0 0 252 72" fill="none" xmlns="http://www.w3.org/2000/svg">
<path d="M97.0202 18.2667C102.816 18.2667 106.344 23.08 106.344 28.4C106.344 32.7067 104.076 38.7867 97.0202 38.7867C91.2242 38.7867 87.9482 33.9733 87.9482 28.6533C87.9482 22.8267 91.4762 18.2667 97.0202 18.2667ZM97.0202 35.4933C99.7922 35.4933 102.564 33.2133 102.564 28.9067C102.564 25.36 100.8 21.8133 97.0202 21.8133C93.7442 21.8133 91.4762 24.3467 91.4762 28.6533C91.4762 31.44 92.9882 35.4933 97.0202 35.4933Z" fill="white"/>
<path d="M112.644 24.6V25.8667C113.148 25.36 114.408 24.0933 116.424 24.0933C117.18 24.0933 119.196 24.3467 120.708 26.12C121.464 26.88 122.472 28.6533 122.472 31.44C122.472 32.2 122.472 34.2267 121.212 36C119.7 38.28 117.432 38.5333 116.424 38.5333C115.668 38.5333 114.156 38.28 112.644 37.0133V42.5867H109.368V24.3467H112.644V24.6ZM115.92 27.1333C113.652 27.1333 112.644 29.4133 112.644 31.1867C112.644 33.4667 113.904 35.4933 115.92 35.4933C117.18 35.4933 119.196 34.7333 119.196 31.1867C119.196 28.4 117.432 27.1333 115.92 27.1333Z" fill="white"/>
<path d="M138.096 38.28H134.82V29.92L128.772 36V38.28H125.496V24.6H128.772V32.4533L134.82 26.3733V24.3466H138.096V38.28Z" fill="white"/>
<path d="M147.924 38.7867C142.884 38.7867 140.868 34.7333 140.868 31.44C140.868 28.1467 143.136 24.0933 147.924 24.0933C150.948 24.0933 154.98 26.12 154.98 31.44C154.98 34.9867 152.712 38.7867 147.924 38.7867ZM147.924 35.7467C150.444 35.7467 151.452 33.72 151.452 31.6933C151.452 29.4133 150.192 27.3867 147.672 27.3867C145.656 27.3867 144.144 28.9067 144.144 31.44C144.144 33.72 145.656 35.7467 147.924 35.7467Z" fill="white"/>
<path d="M161.028 24.6V29.6667H166.824V24.6H170.1V38.28H166.824V32.4533H161.028V38.28H157.752V24.6H161.028Z" fill="white"/>
<path d="M189.252 18.7733V38.28H185.724V22.0666H177.66V38.28H173.88V18.7733H189.252Z" fill="white"/>
<path d="M196.308 24.6V25.8667C196.812 25.36 198.072 24.0933 200.088 24.0933C200.844 24.0933 202.86 24.3467 204.372 26.12C205.128 26.88 206.136 28.6533 206.136 31.44C206.136 32.2 206.136 34.2267 204.876 36C203.364 38.28 201.096 38.5333 200.088 38.5333C199.332 38.5333 197.82 38.28 196.308 37.0133V42.5867H193.032V24.3467H196.308V24.6ZM199.584 27.1333C197.316 27.1333 196.308 29.4133 196.308 31.1867C196.308 33.4667 197.568 35.4933 199.584 35.4933C200.844 35.4933 202.86 34.7333 202.86 31.1867C202.86 28.4 201.096 27.1333 199.584 27.1333Z" fill="white"/>
<path d="M221.76 38.28H218.484V29.92L212.436 36V38.28H209.16V24.6H212.436V32.4533L218.484 26.3733V24.3466H221.76V38.28Z" fill="white"/>
<path d="M228.564 24.6V29.6667H234.36V24.6H237.636V38.28H234.36V32.4533H228.564V38.28H225.288V24.6H228.564Z" fill="white"/>
<path d="M252.756 24.6V27.64H247.968V38.5333H244.692V27.64H239.904V24.6H252.756Z" fill="white"/>
<path d="M95.7605 48.92V49.9333H93.2405V56.52H91.9805V49.9333H89.4604V48.92H95.7605Z" fill="white"/>
<path d="M98.532 48.92V53.9867L102.564 49.68V48.92H103.824V56.52H102.564V51.2L98.532 55.5067V56.52H97.272V48.92H98.532Z" fill="white"/>
<path d="M112.14 48.92V56.52H110.88V49.9333H107.1V56.52H105.84V48.92H112.14Z" fill="white"/>
<path d="M117.684 48.92C119.7 48.92 121.212 50.1867 121.212 52.9733C121.212 55.76 119.448 57.0267 117.432 57.0267C115.416 57.0267 113.652 55.5067 113.652 52.9733C113.904 51.7067 114.408 48.92 117.684 48.92ZM117.684 55.76C119.196 55.76 119.952 54.4933 119.952 52.72C119.952 51.4533 119.448 49.9333 117.684 49.9333C115.416 49.9333 115.164 52.4667 115.164 52.9733C115.164 53.7333 115.416 55.76 117.684 55.76Z" fill="white"/>
<path d="M128.52 48.92V49.9333H124.236V56.52H122.976V48.92H128.52Z" fill="white"/>
<path d="M131.04 48.92V49.9333C131.544 49.4267 132.3 48.6667 133.812 48.6667C135.324 48.6667 137.088 49.9333 137.088 52.72C137.088 54.4933 136.332 56.7733 133.56 56.7733C132.552 56.7733 131.544 56.52 131.04 55.76V60.32H129.78V49.1733H131.04V48.92ZM133.308 55.76C134.82 55.76 135.576 54.4933 135.576 52.72C135.576 50.6933 134.316 49.9333 133.308 49.9333C131.796 49.9333 130.788 50.9467 130.788 52.9733C131.04 54.7467 132.048 55.76 133.308 55.76Z" fill="white"/>
<path d="M143.388 51.7067C143.388 50.9467 143.388 49.68 141.624 49.68C140.616 49.68 140.112 50.1867 140.112 51.2H138.852C138.852 50.9467 139.104 48.6667 141.624 48.6667C142.128 48.6667 142.884 48.6667 143.388 49.1733C144.396 49.68 144.396 50.6933 144.396 51.96V54.7467C144.396 55.2533 144.396 55.5067 144.9 55.5067C145.152 55.5067 145.152 55.5067 145.404 55.5067V56.52C144.9 56.7733 144.9 56.7733 144.648 56.7733C144.648 56.7733 144.144 56.7733 143.892 56.52C143.64 56.2667 143.388 55.76 143.388 55.5067C143.136 56.0133 142.38 56.7733 140.868 56.7733C139.356 56.7733 138.348 56.0133 138.348 54.4933C138.348 54.24 138.348 53.48 139.104 52.9733C139.86 52.4667 141.12 52.2133 142.128 52.2133H143.388V51.7067ZM140.616 53.48C140.364 53.48 139.608 53.9867 139.608 54.7467C139.608 55.2533 140.112 55.76 141.12 55.76C141.876 55.76 143.388 55.5067 143.388 53.48V52.9733C142.884 52.9733 141.372 53.2267 140.616 53.48Z" fill="white"/>
<path d="M151.452 45.3733V49.1733C154.476 49.4267 155.232 50.6933 155.232 52.9733C155.232 55.76 153.72 56.7733 151.452 56.7733V60.32H150.192V56.7733C147.168 56.7733 146.412 55 146.412 52.9733C146.412 50.44 147.672 49.4267 150.192 49.1733V45.3733H151.452ZM150.444 50.1867C149.436 50.1867 147.924 50.6933 147.924 52.9733C147.924 54.4933 148.428 55.5066 150.444 55.76V50.1867ZM151.452 55.5066C153.468 55.5066 153.972 53.9866 153.972 52.72C153.972 51.2 153.468 50.1867 151.452 49.9333V55.5066Z" fill="white"/>
<path d="M158.508 48.92V53.9867L162.54 49.68V48.92H163.8V56.52H162.54V51.2L158.508 55.5067V56.52H157.248V48.92H158.508Z" fill="white"/>
<path d="M171.612 56.52H170.352V53.48H168.84C166.824 53.48 167.328 55.76 166.572 56.52H165.06C166.068 55.76 165.312 53.7333 167.076 53.2267C166.068 52.9733 165.564 52.2133 165.564 51.4533C165.564 49.68 166.572 49.1733 168.084 49.1733H171.108V56.52H171.612ZM168.336 50.1867C167.328 50.1867 167.076 50.9467 167.076 51.4533C167.076 51.96 167.328 52.72 168.336 52.72H170.352V50.44H168.336V50.1867Z" fill="white"/>
<path d="M21.9238 23.08L10.3318 11.4267C6.04777 15.7333 2.77177 21.0533 1.25977 27.1333L17.3878 31.44C18.1438 28.4 19.6558 25.36 21.9238 23.08Z" fill="#9D2E88"/>
<path d="M48.1318 49.4267L59.9758 61.08C64.2598 56.7733 67.5358 51.4534 69.0478 45.3733L52.6678 41.0667C51.9118 44.36 50.1478 47.1467 48.1318 49.4267Z" fill="#FAE900"/>
<path d="M21.9241 49.4267L10.0801 61.08C14.3641 65.3867 19.6561 68.68 25.7041 70.2L29.9881 53.9867C26.9641 53.2267 24.1921 51.7067 21.9241 49.4267Z" fill="#007172"/>
<path d="M48.1319 23.08L59.9759 11.1733C55.6919 6.86668 50.3999 3.57334 44.3519 2.05334L40.0679 18.2667C42.8399 19.28 45.8639 21.0533 48.1319 23.08Z" fill="#E84815"/>
<path d="M53.4239 36.2533C53.4239 38.0267 53.1719 39.5467 52.9199 41.0667L69.0479 45.3733C69.8039 42.5867 70.3079 39.2933 70.3079 36.2533C70.3079 33.2133 69.8039 30.1733 69.0479 27.1333L52.9199 31.44C53.1719 32.96 53.4239 34.7333 53.4239 36.2533Z" fill="#FDC000"/>
<path d="M16.632 36.2533C16.632 34.48 16.884 32.96 17.136 31.44L1.008 27.1333C0.504 30.1733 0 33.2133 0 36.2533C0 39.2933 0.504 42.3333 1.26 45.3733L17.136 41.0667C16.884 39.5467 16.632 38.0267 16.632 36.2533Z" fill="#5C2483"/>
<path d="M17.1358 41.0667L1.00781 45.3733C2.51981 51.4534 5.79581 56.7733 10.0798 61.08L21.9238 49.4267C19.6558 47.1467 18.1438 44.36 17.1358 41.0667Z" fill="#2F2A81"/>
<path d="M35.0281 54.7467C33.2641 54.7467 31.7521 54.4934 30.2401 54.24L25.9561 70.4534C28.7281 71.2134 32.0041 71.72 35.0281 71.72C38.0521 71.72 41.0761 71.2134 44.1001 70.4534L39.8161 54.24C38.3041 54.4934 36.5401 54.7467 35.0281 54.7467Z" fill="#39A736"/>
<path d="M39.8159 54.24L44.0999 70.4534C50.1479 68.9334 55.4399 65.64 59.7239 61.3334L47.8799 49.68C45.8639 51.7067 42.8399 53.2267 39.8159 54.24Z" fill="#8CBE23"/>
<path d="M52.6679 31.44L68.7959 27.1333C67.2839 21.0533 64.0079 15.7333 59.7239 11.4267L47.8799 23.3333C50.1479 25.36 51.9119 28.4 52.6679 31.44Z" fill="#F08200"/>
<path d="M35.0281 17.76C36.7921 17.76 38.3041 18.0133 39.8161 18.2667L44.1001 2.05335C41.3281 1.29335 38.0521 0.786682 35.0281 0.786682C32.0041 0.786682 28.7281 1.29335 25.9561 2.05335L30.2401 18.52C31.7521 18.0133 33.2641 17.76 35.0281 17.76Z" fill="#E41716"/>
<path d="M30.2401 18.52L25.9561 2.3067C22.9321 3.0667 20.1601 4.33337 17.3881 5.85337C14.6161 7.37337 12.3481 9.40004 10.0801 11.4267L21.9241 23.3334C24.1921 21.0534 26.9641 19.28 30.2401 18.52Z" fill="#DC0068"/>
<path d="M42.084 43.3467L48.384 49.68C50.652 47.4 52.416 44.36 53.172 41.32L44.604 39.04C44.1 40.56 43.092 42.08 42.084 43.3467Z" fill="#9D2E88"/>
<path d="M27.9718 29.16L21.6718 23.08C19.4038 25.36 17.6398 28.4 16.8838 31.44L25.4518 33.72C25.9558 31.9467 26.7118 30.4267 27.9718 29.16Z" fill="#FAE900"/>
<path d="M42.0838 29.16L48.3838 22.8267C46.1158 20.5467 43.0918 18.7734 40.0678 18.0134L37.7998 26.6267C39.3118 27.1334 40.8238 28.1467 42.0838 29.16Z" fill="#007172"/>
<path d="M27.9719 43.3467L21.6719 49.68C23.9399 51.96 26.9639 53.7333 29.9879 54.4933L32.2559 45.88C30.7439 45.3733 29.2319 44.6133 27.9719 43.3467Z" fill="#E84815"/>
<path d="M25.1999 36.2534C25.1999 35.24 25.1999 34.48 25.4519 33.72L16.8839 31.44C16.3799 32.96 16.1279 34.7334 16.1279 36.2534C16.1279 38.0267 16.3799 39.5467 16.8839 41.0667L25.4519 38.7867C25.1999 38.0267 25.1999 37.2667 25.1999 36.2534Z" fill="#FDC000"/>
<path d="M44.856 36.2534C44.856 37.2667 44.856 38.0267 44.604 38.7867L53.172 41.0667C53.676 39.5467 53.928 37.7734 53.928 36.2534C53.928 34.48 53.676 32.96 53.172 31.44L44.604 33.72C44.856 34.48 44.856 35.4934 44.856 36.2534Z" fill="#5C2483"/>
<path d="M44.604 33.72L53.172 31.44C52.416 28.1467 50.652 25.36 48.384 23.08L42.084 29.4134C43.092 30.4267 44.1 31.9467 44.604 33.72Z" fill="#2F2A81"/>
<path d="M35.0277 26.3734C35.7837 26.3734 36.7917 26.3734 37.5477 26.6267L39.8157 18.0134C38.3037 17.5067 36.5397 17.2534 35.0277 17.2534C33.2637 17.2534 31.7517 17.5067 30.2397 18.0134L32.5077 26.6267C33.2637 26.3734 34.0197 26.3734 35.0277 26.3734Z" fill="#39A736"/>
<path d="M32.5078 26.6267L30.2398 18.0134C26.9638 18.7734 24.1918 20.5467 21.9238 22.8267L28.2238 29.16C29.2318 28.1467 30.7438 27.1334 32.5078 26.6267Z" fill="#8CBE23"/>
<path d="M25.4518 38.7867L16.8838 41.0667C17.6398 44.36 19.4038 47.1467 21.6718 49.4267L27.9718 43.0933C26.7118 42.08 25.9558 40.56 25.4518 38.7867Z" fill="#F08200"/>
<path d="M35.0277 46.1334C34.2717 46.1334 33.2637 46.1334 32.5077 45.88L30.2397 54.4934C31.7517 55 33.5157 55.2534 35.0277 55.2534C36.7917 55.2534 38.3037 55 39.8157 54.4934L37.5477 45.88C36.7917 46.1334 35.7837 46.1334 35.0277 46.1334Z" fill="#E41716"/>
<path d="M37.5479 45.88L39.8159 54.4933C41.3279 53.9867 42.8399 53.48 44.3519 52.72C45.8639 51.96 47.1239 50.9467 48.1319 49.68L41.8319 43.3467C40.8239 44.6133 39.3119 45.3733 37.5479 45.88Z" fill="#DC0068"/>
</svg>
