<svg width="32" height="32" viewBox="0 0 32 32" fill="none" xmlns="http://www.w3.org/2000/svg">
<circle cx="16" cy="16" r="16" fill="#8CBD24"/>
<path d="M24.8536 16.3536C25.0488 16.1583 25.0488 15.8417 24.8536 15.6464L21.6716 12.4645C21.4763 12.2692 21.1597 12.2692 20.9645 12.4645C20.7692 12.6597 20.7692 12.9763 20.9645 13.1716L23.7929 16L20.9645 18.8284C20.7692 19.0237 20.7692 19.3403 20.9645 19.5355C21.1597 19.7308 21.4763 19.7308 21.6716 19.5355L24.8536 16.3536ZM24 16.5H24.5V15.5H24V16.5Z" fill="white"/>
<path d="M7.64645 15.6464C7.45118 15.8417 7.45118 16.1583 7.64645 16.3536L10.8284 19.5355C11.0237 19.7308 11.3403 19.7308 11.5355 19.5355C11.7308 19.3403 11.7308 19.0237 11.5355 18.8284L8.70711 16L11.5355 13.1716C11.7308 12.9763 11.7308 12.6597 11.5355 12.4645C11.3403 12.2692 11.0237 12.2692 10.8284 12.4645L7.64645 15.6464ZM8.5 15.5L8 15.5L8 16.5L8.5 16.5L8.5 15.5Z" fill="white"/>
</svg>
