<?xml version="1.0" encoding="utf-8"?>
<!-- Generator: Adobe Illustrator 19.0.0, SVG Export Plug-In . SVG Version: 6.00 Build 0)  -->
<svg version="1.1" id="Слой_1" xmlns="http://www.w3.org/2000/svg" xmlns:xlink="http://www.w3.org/1999/xlink" x="0px" y="0px"
	 viewBox="0 0 38 23.9" style="enable-background:new 0 0 38 23.9;" xml:space="preserve">
<style type="text/css">
	.st0{fill:none;}
</style>
<g>
	<polygon class="st0" points="8.7,14.5 9,14.6 9.3,14.6 9.7,14.7 9.7,13.7 9.7,11.6 9.7,9.3 9.7,8.4 9.7,8.3 9.3,8.2 8.7,8 6.8,7.4 
		5.8,7.1 5.6,8 4.2,13.3 	"/>
	<rect x="13.9" y="6.2" class="st0" width="5.7" height="4.4"/>
	<polygon class="st0" points="19.6,16.1 11,16.1 11,16.1 11,16.1 10.7,16 10.3,15.9 9.7,15.8 9.7,15.8 9.3,15.7 8.7,15.5 4,14.3 
		3,14 3.3,13.1 4.9,6.8 5.1,5.8 6.1,6.1 8.7,6.9 9.3,7.1 9.7,7.2 9.7,4.1 9.3,4 8.7,3.8 4.7,2.6 1.2,16.2 26.7,22.7 27.7,17.1 
		27.8,16.5 27.9,16.1 21.7,16.1 	"/>
	<path class="st0" d="M10.7,2.3v0.9v4.3v0.8v3.2v2.9v0.4v0.3H11h0.3H29h1.1H37V1H10.7V2.3z M23.2,5.4V5.2h11.6v0.3v0.7H23.2V5.4z
		 M23.2,8.4V7.8h11.6v0.5v0.5H23.2V8.4z M23.2,10.6h11.6v1H23.2V10.6z M12.9,10.6V6.2v-1h1h5.7h1v1v4.4v1h-1h-5.7h-1V10.6z"/>
	<path d="M37,0H10.7h-1v1v1v1l-1-0.3L5,1.6L4,1.3l-0.2,1L0.2,15.9l-0.2,1l1,0.2v0l25.5,6.5l1,0.2l0,0l0.2-1l1.1-5.8l0.1-0.6l0.1-0.4
		H29h0.9H37h1v-1V1V0H37z M5.6,8l0.2-1l1,0.3L8.7,8l0.6,0.2l0.4,0.1v0.1v0.9v2.3v2.1v1l-0.4-0.1L9,14.6l-0.3-0.1l-4.4-1.2L5.6,8z
		 M27.8,16.5l-0.1,0.6l-1,5.6L1.2,16.2L4.7,2.6l4,1.2L9.3,4l0.4,0.1v3.2L9.3,7.1L8.7,6.9L6.1,6.1l-1-0.3l-0.3,1l-1.6,6.2L3,14l1,0.3
		l4.7,1.2l0.6,0.2l0.4,0.1l0.1,0l0.6,0.1l0.4,0.1l0.3,0.1l0,0v0h8.6h2.1h6.1L27.8,16.5z M37,15.1h-6.9H29H11.3H11h-0.3v-0.3v-0.4
		v-2.9V8.4V7.5V3.2V2.3V1H37V15.1z"/>
	<path d="M19.6,11.6h1v-1V6.2v-1h-1h-5.7h-1v1v4.4v1h1H19.6z M13.9,6.2h5.7v4.4h-5.7V6.2z"/>
	<polygon points="34.8,5.4 34.8,5.2 23.2,5.2 23.2,5.4 23.2,6.2 34.8,6.2 	"/>
	<polygon points="34.8,8.4 34.8,7.8 23.2,7.8 23.2,8.4 23.2,8.8 34.8,8.8 	"/>
	<rect x="23.2" y="10.6" width="11.6" height="1"/>
</g>
</svg>
