<svg width="252" height="72" fill="none" xmlns="http://www.w3.org/2000/svg"><path d="M97.02 18.267c5.796 0 9.324 4.813 9.324 10.133 0 4.307-2.268 10.387-9.324 10.387-5.796 0-9.072-4.814-9.072-10.134 0-5.826 3.528-10.386 9.072-10.386zm0 17.226c2.772 0 5.544-2.28 5.544-6.586 0-3.547-1.764-7.094-5.544-7.094-3.276 0-5.544 2.534-5.544 6.84 0 2.787 1.512 6.84 5.544 6.84zM112.644 24.6v1.267c.504-.507 1.764-1.774 3.78-1.774.756 0 2.772.254 4.284 2.027.756.76 1.764 2.533 1.764 5.32 0 .76 0 2.787-1.26 4.56-1.512 2.28-3.78 2.533-4.788 2.533-.756 0-2.268-.253-3.78-1.52v5.574h-3.276v-18.24h3.276v.253zm3.276 2.533c-2.268 0-3.276 2.28-3.276 4.054 0 2.28 1.26 4.306 3.276 4.306 1.26 0 3.276-.76 3.276-4.306 0-2.787-1.764-4.054-3.276-4.054zm22.176 11.147h-3.276v-8.36L128.772 36v2.28h-3.276V24.6h3.276v7.853l6.048-6.08v-2.026h3.276V38.28zm9.828.507c-5.04 0-7.056-4.054-7.056-7.347s2.268-7.347 7.056-7.347c3.024 0 7.056 2.027 7.056 7.347 0 3.547-2.268 7.347-7.056 7.347zm0-3.04c2.52 0 3.528-2.027 3.528-4.054 0-2.28-1.26-4.306-3.78-4.306-2.016 0-3.528 1.52-3.528 4.053 0 2.28 1.512 4.307 3.78 4.307zM161.028 24.6v5.067h5.796V24.6h3.276v13.68h-3.276v-5.827h-5.796v5.827h-3.276V24.6h3.276zm28.224-5.827V38.28h-3.528V22.067h-8.064V38.28h-3.78V18.773h15.372zm7.056 5.827v1.267c.504-.507 1.764-1.774 3.78-1.774.756 0 2.772.254 4.284 2.027.756.76 1.764 2.533 1.764 5.32 0 .76 0 2.787-1.26 4.56-1.512 2.28-3.78 2.533-4.788 2.533-.756 0-2.268-.253-3.78-1.52v5.574h-3.276v-18.24h3.276v.253zm3.276 2.533c-2.268 0-3.276 2.28-3.276 4.054 0 2.28 1.26 4.306 3.276 4.306 1.26 0 3.276-.76 3.276-4.306 0-2.787-1.764-4.054-3.276-4.054zM221.76 38.28h-3.276v-8.36L212.436 36v2.28h-3.276V24.6h3.276v7.853l6.048-6.08v-2.026h3.276V38.28zm6.804-13.68v5.067h5.796V24.6h3.276v13.68h-3.276v-5.827h-5.796v5.827h-3.276V24.6h3.276zm24.192 0v3.04h-4.788v10.893h-3.276V27.64h-4.788V24.6h12.852zM95.76 48.92v1.013h-2.52v6.587h-1.26v-6.587h-2.52V48.92h6.3zm2.772 0v5.067l4.032-4.307v-.76h1.26v7.6h-1.26V51.2l-4.032 4.307v1.013h-1.26v-7.6h1.26zm13.608 0v7.6h-1.26v-6.587h-3.78v6.587h-1.26v-7.6h6.3zm5.544 0c2.016 0 3.528 1.267 3.528 4.053 0 2.787-1.764 4.054-3.78 4.054s-3.78-1.52-3.78-4.054c.252-1.266.756-4.053 4.032-4.053zm0 6.84c1.512 0 2.268-1.267 2.268-3.04 0-1.267-.504-2.787-2.268-2.787-2.268 0-2.52 2.534-2.52 3.04 0 .76.252 2.787 2.52 2.787zm10.836-6.84v1.013h-4.284v6.587h-1.26v-7.6h5.544zm2.52 0v1.013c.504-.506 1.26-1.266 2.772-1.266 1.512 0 3.276 1.266 3.276 4.053 0 1.773-.756 4.053-3.528 4.053-1.008 0-2.016-.253-2.52-1.013v4.56h-1.26V49.173h1.26v-.253zm2.268 6.84c1.512 0 2.268-1.267 2.268-3.04 0-2.027-1.26-2.787-2.268-2.787-1.512 0-2.52 1.014-2.52 3.04.252 1.774 1.26 2.787 2.52 2.787zm10.08-4.053c0-.76 0-2.027-1.764-2.027-1.008 0-1.512.507-1.512 1.52h-1.26c0-.253.252-2.533 2.772-2.533.504 0 1.26 0 1.764.506 1.008.507 1.008 1.52 1.008 2.787v2.787c0 .506 0 .76.504.76h.504v1.013c-.504.253-.504.253-.756.253 0 0-.504 0-.756-.253s-.504-.76-.504-1.013c-.252.506-1.008 1.266-2.52 1.266s-2.52-.76-2.52-2.28c0-.253 0-1.013.756-1.52.756-.506 2.016-.76 3.024-.76h1.26v-.506zm-2.772 1.773c-.252 0-1.008.507-1.008 1.267 0 .506.504 1.013 1.512 1.013.756 0 2.268-.253 2.268-2.28v-.507c-.504 0-2.016.254-2.772.507zm10.836-8.107v3.8c3.024.254 3.78 1.52 3.78 3.8 0 2.787-1.512 3.8-3.78 3.8v3.547h-1.26v-3.547c-3.024 0-3.78-1.773-3.78-3.8 0-2.533 1.26-3.546 3.78-3.8v-3.8h1.26zm-1.008 4.814c-1.008 0-2.52.506-2.52 2.786 0 1.52.504 2.534 2.52 2.787v-5.573zm1.008 5.32c2.016 0 2.52-1.52 2.52-2.787 0-1.52-.504-2.533-2.52-2.787v5.574zm7.056-6.587v5.067l4.032-4.307v-.76h1.26v7.6h-1.26V51.2l-4.032 4.307v1.013h-1.26v-7.6h1.26zm13.104 7.6h-1.26v-3.04h-1.512c-2.016 0-1.512 2.28-2.268 3.04h-1.512c1.008-.76.252-2.787 2.016-3.293-1.008-.254-1.512-1.014-1.512-1.774 0-1.773 1.008-2.28 2.52-2.28h3.024v7.347h.504zm-3.276-6.333c-1.008 0-1.26.76-1.26 1.266 0 .507.252 1.267 1.26 1.267h2.016v-2.28h-2.016v-.253z" fill="#fff"/><path d="M21.924 23.08L10.332 11.427c-4.284 4.306-7.56 9.626-9.072 15.706l16.128 4.307c.756-3.04 2.268-6.08 4.536-8.36z" fill="#9D2E88"/><path d="M48.132 49.427L59.976 61.08c4.284-4.307 7.56-9.627 9.072-15.707l-16.38-4.306c-.756 3.293-2.52 6.08-4.536 8.36z" fill="#FAE900"/><path d="M21.924 49.427L10.08 61.08c4.284 4.307 9.576 7.6 15.624 9.12l4.284-16.213c-3.024-.76-5.796-2.28-8.064-4.56z" fill="#007172"/><path d="M48.132 23.08l11.844-11.907c-4.284-4.306-9.576-7.6-15.624-9.12l-4.284 16.214c2.772 1.013 5.796 2.786 8.064 4.813z" fill="#E84815"/><path d="M53.424 36.253c0 1.774-.252 3.294-.504 4.814l16.128 4.306c.756-2.786 1.26-6.08 1.26-9.12 0-3.04-.504-6.08-1.26-9.12L52.92 31.44c.252 1.52.504 3.293.504 4.813z" fill="#FDC000"/><path d="M16.632 36.253c0-1.773.252-3.293.504-4.813L1.008 27.133C.504 30.173 0 33.213 0 36.253c0 3.04.504 6.08 1.26 9.12l15.876-4.306c-.252-1.52-.504-3.04-.504-4.814z" fill="#5C2483"/><path d="M17.136 41.067L1.008 45.373c1.512 6.08 4.788 11.4 9.072 15.707l11.844-11.653c-2.268-2.28-3.78-5.067-4.788-8.36z" fill="#2F2A81"/><path d="M35.028 54.747c-1.764 0-3.276-.254-4.788-.507l-4.284 16.213c2.772.76 6.048 1.267 9.072 1.267 3.024 0 6.048-.507 9.072-1.267L39.816 54.24c-1.512.253-3.276.507-4.788.507z" fill="#39A736"/><path d="M39.816 54.24L44.1 70.453c6.048-1.52 11.34-4.813 15.624-9.12L47.88 49.68c-2.016 2.027-5.04 3.547-8.064 4.56z" fill="#8CBE23"/><path d="M52.668 31.44l16.128-4.307c-1.512-6.08-4.788-11.4-9.072-15.706L47.88 23.333c2.268 2.027 4.032 5.067 4.788 8.107z" fill="#F08200"/><path d="M35.028 17.76c1.764 0 3.276.253 4.788.507L44.1 2.053c-2.772-.76-6.048-1.266-9.072-1.266-3.024 0-6.3.506-9.072 1.266L30.24 18.52c1.512-.507 3.024-.76 4.788-.76z" fill="#E41716"/><path d="M30.24 18.52L25.956 2.307c-3.024.76-5.796 2.026-8.568 3.546-2.772 1.52-5.04 3.547-7.308 5.574l11.844 11.906c2.268-2.28 5.04-4.053 8.316-4.813z" fill="#DC0068"/><path d="M42.084 43.347l6.3 6.333c2.268-2.28 4.032-5.32 4.788-8.36l-8.568-2.28c-.504 1.52-1.512 3.04-2.52 4.307z" fill="#9D2E88"/><path d="M27.972 29.16l-6.3-6.08c-2.268 2.28-4.032 5.32-4.788 8.36l8.568 2.28c.504-1.773 1.26-3.293 2.52-4.56z" fill="#FAE900"/><path d="M42.084 29.16l6.3-6.333c-2.268-2.28-5.292-4.054-8.316-4.814L37.8 26.627c1.512.506 3.024 1.52 4.284 2.533z" fill="#007172"/><path d="M27.972 43.347l-6.3 6.333c2.268 2.28 5.292 4.053 8.316 4.813l2.268-8.613c-1.512-.507-3.024-1.267-4.284-2.533z" fill="#E84815"/><path d="M25.2 36.253c0-1.013 0-1.773.252-2.533l-8.568-2.28c-.504 1.52-.756 3.293-.756 4.813 0 1.774.252 3.294.756 4.814l8.568-2.28c-.252-.76-.252-1.52-.252-2.534z" fill="#FDC000"/><path d="M44.856 36.253c0 1.014 0 1.774-.252 2.534l8.568 2.28c.504-1.52.756-3.294.756-4.814 0-1.773-.252-3.293-.756-4.813l-8.568 2.28c.252.76.252 1.773.252 2.533z" fill="#5C2483"/><path d="M44.604 33.72l8.568-2.28c-.756-3.293-2.52-6.08-4.788-8.36l-6.3 6.333a10.253 10.253 0 012.52 4.307z" fill="#2F2A81"/><path d="M35.028 26.373c.756 0 1.764 0 2.52.254l2.268-8.614c-1.512-.506-3.276-.76-4.788-.76-1.764 0-3.276.254-4.788.76l2.268 8.614c.756-.254 1.512-.254 2.52-.254z" fill="#39A736"/><path d="M32.508 26.627l-2.268-8.614c-3.276.76-6.048 2.534-8.316 4.814l6.3 6.333a10.178 10.178 0 014.284-2.533z" fill="#8CBE23"/><path d="M25.452 38.787l-8.568 2.28c.756 3.293 2.52 6.08 4.788 8.36l6.3-6.334c-1.26-1.013-2.016-2.533-2.52-4.306z" fill="#F08200"/><path d="M35.028 46.133c-.756 0-1.764 0-2.52-.253l-2.268 8.613c1.512.507 3.276.76 4.788.76 1.764 0 3.276-.253 4.788-.76l-2.268-8.613c-.756.253-1.764.253-2.52.253z" fill="#E41716"/><path d="M37.548 45.88l2.268 8.613c1.512-.506 3.024-1.013 4.536-1.773 1.512-.76 2.772-1.773 3.78-3.04l-6.3-6.333c-1.008 1.266-2.52 2.026-4.284 2.533z" fill="#DC0068"/></svg>